#!OML:ASF F:\VICON\USERDATA\INSTALL\rory3\rory3.ASF
:FULLY-SPECIFIED
:DEGREES
1825
root -7.4632 18.503 1.52251 -12.7614 -68.0544 13.6275
lowerback 4.62847 2.12408 -0.064264
upperback 0.394995 2.7912 -1.20685
thorax -2.129 1.38477 -1.38034
lowerneck -12.4261 3.39195 -5.68032
upperneck 6.12727 5.59133 -1.63665
head 4.14906 2.50687 0.874424
rclavicle 5.03174e-015 -9.54166e-015
rhumerus 73.777 -30.1421 -50.4194
rradius 26.6611
rwrist -0.396797
rhand -44.6627 -12.1044
rfingers 7.12502
rthumb -17.4591 -41.3404
lclavicle 5.03174e-015 -9.54166e-015
lhumerus 59.3399 27.6381 29.4486
lradius 34.8328
lwrist 25.4762
lhand -12.9638 21.2515
lfingers 7.12502
lthumb 13.1281 50.8182
rfemur -5.60056 18.8004 15.0264
rtibia 31.7027
rfoot -26.3333 -10.2108
rtoes 3.74265
lfemur -9.63897 -2.63633 -14.8391
ltibia 45.5908
lfoot -12.7045 9.8239
ltoes -4.88507
1826
root -7.42463 18.5109 1.55619 -12.4081 -68.0711 13.2222
lowerback 4.54263 2.06083 -0.0704887
upperback 0.345526 2.71048 -1.09194
thorax -2.13945 1.34527 -1.25168
lowerneck -12.1592 3.34245 -5.81715
upperneck 5.84673 5.51717 -1.66288
head 3.99337 2.47652 0.871528
rclavicle 5.26779e-015 1.59028e-015
rhumerus 73.3348 -30.2242 -49.8417
rradius 26.6839
rwrist -1.05118
rhand -44.6004 -11.4004
rfingers 7.12502
rthumb -17.3991 -40.6417
lclavicle 5.26779e-015 1.59028e-015
lhumerus 59.6558 27.4937 29.6925
lradius 34.7657
lwrist 25.3818
lhand -12.9224 21.2453
lfingers 7.12502
lthumb 13.168 50.8095
rfemur -5.64533 18.689 14.9952
rtibia 31.601
rfoot -26.1482 -10.1558
rtoes 3.33458
lfemur -9.13509 -2.8415 -14.5245
ltibia 45.879
lfoot -11.9446 9.84691
ltoes -6.21832
1827
root -7.38494 18.5181 1.59006 -11.9633 -68.1105 12.6302
lowerback 4.54419 1.99555 -0.00680167
upperback 0.330063 2.62983 -0.979869
thorax -2.16021 1.30504 -1.16778
lowerneck -12.0655 3.32983 -5.89457
upperneck 5.74699 5.49642 -1.60772
head 3.93567 2.47137 0.89761
rclavicle 2.77677e-014 4.37326e-015
rhumerus 73.3702 -30.3775 -50.0634
rradius 26.5044
rwrist -0.951794
rhand -44.2929 -10.9571
rfingers 7.12502
rthumb -17.1032 -40.2243
lclavicle 2.77677e-014 4.37326e-015
lhumerus 59.7403 27.2734 29.5359
lradius 34.8218
lwrist 25.4412
lhand -13.0307 21.2529
lfingers 7.12502
lthumb 13.0636 50.8237
rfemur -5.61767 18.5786 15.076
rtibia 31.5163
rfoot -25.9639 -10.1158
rtoes 2.95178
lfemur -8.55561 -2.9736 -14.0694
ltibia 46.0622
lfoot -11.3306 9.69849
ltoes -5.77774
1828
root -7.34633 18.5257 1.62404 -12.0069 -68.1443 12.5604
lowerback 4.54135 1.97649 -0.152599
upperback 0.332275 2.59809 -0.933408
thorax -2.1656 1.2907 -1.03657
lowerneck -12.057 3.3173 -6.10044
upperneck 5.71183 5.49028 -1.37588
head 3.90936 2.47703 1.01006
rclavicle 1.03244e-014 1.11319e-014
rhumerus 73.7998 -30.6161 -50.8824
rradius 26.1135
rwrist -0.369038
rhand -43.9501 -10.8724
rfingers 7.12502
rthumb -16.7732 -40.1679
lclavicle 1.03244e-014 1.11319e-014
lhumerus 59.9993 27.0195 29.4812
lradius 34.7602
lwrist 25.5144
lhand -13.1763 21.2073
lfingers 7.12502
lthumb 12.9232 50.7871
rfemur -5.60808 18.4137 14.9296
rtibia 31.4583
rfoot -25.6623 -10.0905
rtoes 2.1473
lfemur -7.92474 -3.09828 -13.8496
ltibia 46.1254
lfoot -10.8653 9.78608
ltoes -5.93292
1829
root -7.30614 18.531 1.65927 -12.3739 -68.175 12.8266
lowerback 4.60037 1.94277 -0.426846
upperback 0.302901 2.53867 -0.909933
thorax -2.24278 1.2634 -0.858639
lowerneck -12.0082 3.30645 -6.26661
upperneck 5.67855 5.4836 -1.22189
head 3.87924 2.47938 1.08828
rclavicle 4.78326e-014 -1.19271e-015
rhumerus 74.3378 -30.6854 -51.8645
rradius 25.6504
rwrist 0.50373
rhand -44.1901 -11.3889
rfingers 7.12502
rthumb -17.0041 -40.6647
lclavicle 4.78326e-014 -1.19271e-015
lhumerus 60.3477 26.8624 29.7138
lradius 34.6668
lwrist 25.2978
lhand -12.9831 20.8227
lfingers 7.12502
lthumb 13.1095 50.3907
rfemur -5.57443 18.3713 14.6479
rtibia 31.4201
rfoot -25.4327 -10.0375
rtoes 1.78432
lfemur -7.22979 -3.16175 -13.7891
ltibia 46.0629
lfoot -10.5026 9.9424
ltoes -7.31272
1830
root -7.26555 18.5345 1.69559 -12.3084 -68.2423 12.6912
lowerback 4.58012 1.90035 -0.496646
upperback 0.279995 2.47788 -0.935089
thorax -2.25749 1.2336 -0.841336
lowerneck -12.076 3.31213 -6.08542
upperneck 5.70211 5.46469 -1.15894
head 3.90446 2.47701 1.07888
rclavicle -5.37091e-014 -2.78299e-015
rhumerus 74.3335 -30.8291 -52.14
rradius 25.4074
rwrist 0.754393
rhand -44.8818 -12.3111
rfingers 7.12502
rthumb -17.6699 -41.5282
lclavicle -5.37091e-014 -2.78299e-015
lhumerus 60.8502 26.7444 29.9197
lradius 34.5236
lwrist 24.8822
lhand -12.5758 20.5293
lfingers 7.12502
lthumb 13.5021 50.0716
rfemur -5.61826 18.3168 14.5145
rtibia 31.4115
rfoot -25.26 -9.93765
rtoes 1.19285
lfemur -6.57228 -3.18671 -13.5459
ltibia 45.8885
lfoot -10.2667 10.1138
ltoes -7.91621
1831
root -7.22519 18.5375 1.7331 -11.8584 -68.3145 12.1788
lowerback 4.47032 1.88016 -0.464816
upperback 0.29002 2.45498 -0.9017
thorax -2.18605 1.2223 -0.819047
lowerneck -12.1528 3.29506 -6.02302
upperneck 5.65216 5.42663 -1.04255
head 3.90119 2.46722 1.10577
rclavicle -2.38542e-015 9.93923e-015
rhumerus 74.0419 -31.1091 -51.9018
rradius 25.2992
rwrist 0.398854
rhand -44.9571 -12.5503
rfingers 7.12502
rthumb -17.7424 -41.7608
lclavicle -2.38542e-015 9.93923e-015
lhumerus 61.2694 26.5559 29.951
lradius 34.4026
lwrist 24.4893
lhand -12.4894 20.4377
lfingers 7.12502
lthumb 13.5853 49.9744
rfemur -5.71871 18.1965 14.5222
rtibia 31.399
rfoot -24.9739 -9.98094
rtoes 0.469781
lfemur -5.97882 -3.21659 -13.1211
ltibia 45.6143
lfoot -10.1123 10.2638
ltoes -7.93267
1832
root -7.18151 18.5403 1.7743 -11.8045 -68.3533 12.0683
lowerback 4.46778 1.82993 -0.582709
upperback 0.26787 2.38323 -0.853197
thorax -2.21497 1.18789 -0.699387
lowerneck -12.2153 3.28342 -6.11732
upperneck 5.62267 5.42267 -0.966948
head 3.8987 2.46725 1.14876
rclavicle -4.60435e-014 1.15295e-014
rhumerus 73.9977 -31.2744 -51.9786
rradius 25.1303
rwrist 0.257537
rhand -44.6899 -11.8332
rfingers 7.12502
rthumb -17.4852 -41.0668
lclavicle -4.60435e-014 1.15295e-014
lhumerus 61.4628 26.36 29.8106
lradius 34.3038
lwrist 24.27
lhand -12.3335 20.5493
lfingers 7.12502
lthumb 13.7356 50.0759
rfemur -5.80526 18.0458 14.3237
rtibia 31.3473
rfoot -24.6872 -9.86121
rtoes 0.432345
lfemur -5.39227 -3.27481 -12.8883
ltibia 45.2567
lfoot -9.89856 10.4039
ltoes -8.04122
1833
root -7.13655 18.5468 1.81543 -11.6081 -68.4239 11.7724
lowerback 4.59977 1.78973 -0.625076
upperback 0.196296 2.32694 -0.798487
thorax -2.36683 1.16049 -0.622355
lowerneck -12.1516 3.27669 -6.08505
upperneck 5.54383 5.40291 -0.992887
head 3.85995 2.45975 1.12951
rclavicle -2.59538e-014 -2.78299e-015
rhumerus 74.2584 -31.4393 -52.5731
rradius 24.8045
rwrist 0.646902
rhand -44.4319 -11.4382
rfingers 7.12502
rthumb -17.2369 -40.6938
lclavicle -2.59538e-014 -2.78299e-015
lhumerus 61.7324 26.1358 29.756
lradius 34.1577
lwrist 24.0003
lhand -12.0245 20.6388
lfingers 7.12502
lthumb 14.0334 50.1451
rfemur -5.82212 18.1312 14.237
rtibia 31.2526
rfoot -24.4035 -9.78507
rtoes 0.81622
lfemur -4.74074 -3.36152 -12.5871
ltibia 44.8032
lfoot -9.65375 10.5204
ltoes -7.80882
1834
root -7.09064 18.554 1.85653 -11.2456 -68.4951 11.266
lowerback 4.73344 1.77208 -0.622655
upperback 0.179616 2.30362 -0.732283
thorax -2.46162 1.14911 -0.559318
lowerneck -12.1108 3.23046 -5.98753
upperneck 5.40405 5.31813 -0.996094
head 3.80696 2.42469 1.1017
rclavicle -3.8763e-015 -2.78299e-015
rhumerus 74.414 -31.6861 -52.9212
rradius 24.5115
rwrist 0.855682
rhand -44.395 -11.1725
rfingers 7.12502
rthumb -17.2014 -40.4311
lclavicle -3.8763e-015 -2.78299e-015
lhumerus 62.2136 25.9529 29.9589
lradius 33.9742
lwrist 23.741
lhand -11.9243 20.6449
lfingers 7.12502
lthumb 14.13 50.1445
rfemur -5.77094 18.3639 14.2549
rtibia 31.1504
rfoot -24.2015 -9.79498
rtoes 1.04848
lfemur -4.05741 -3.49971 -12.1968
ltibia 44.2386
lfoot -9.32486 10.6075
ltoes -6.57444
1835
root -7.04393 18.562 1.90082 -10.9086 -68.5323 10.8473
lowerback 4.75368 1.69693 -0.654473
upperback 0.207188 2.20344 -0.665645
thorax -2.44881 1.09985 -0.466447
lowerneck -12.3376 3.211 -5.95803
upperneck 5.42996 5.30005 -0.940532
head 3.86095 2.41677 1.12123
rclavicle -8.23714e-015 2.78299e-015
rhumerus 74.4256 -31.8017 -52.883
rradius 24.3299
rwrist 0.622676
rhand -44.6189 -11.4603
rfingers 7.12502
rthumb -17.4169 -40.7
lclavicle -8.23714e-015 2.78299e-015
lhumerus 62.4946 25.9089 30.0855
lradius 33.9697
lwrist 23.5289
lhand -11.9376 20.3575
lfingers 7.12502
lthumb 14.1171 49.8579
rfemur -5.8221 18.2662 14.1281
rtibia 31.0651
rfoot -23.8832 -9.53775
rtoes 0.528634
lfemur -3.43349 -3.69495 -11.889
ltibia 43.5543
lfoot -8.76369 10.6435
ltoes -6.78105
1836
root -6.995 18.5682 1.94887 -10.9123 -68.4953 10.8588
lowerback 4.70305 1.53459 -0.808295
upperback 0.21293 1.98008 -0.640911
thorax -2.42111 0.99033 -0.338192
lowerneck -12.4416 3.26586 -5.96143
upperneck 5.33289 5.37671 -0.939427
head 3.84432 2.4564 1.1283
rclavicle -1.61264e-014 1.19271e-015
rhumerus 74.887 -31.7528 -53.499
rradius 24.0255
rwrist 0.736811
rhand -44.6994 -12.0081
rfingers 7.12502
rthumb -17.4944 -41.2409
lclavicle -1.61264e-014 1.19271e-015
lhumerus 62.4401 25.9108 29.8795
lradius 34.0997
lwrist 23.3596
lhand -12.0157 20.5015
lfingers 7.12502
lthumb 14.0419 50.0071
rfemur -5.94413 18.2114 13.7851
rtibia 31.0039
rfoot -23.6842 -9.26033
rtoes -0.0500079
lfemur -2.85571 -4.04228 -11.8521
ltibia 42.7717
lfoot -7.90049 10.7017
ltoes -8.32034
1837
root -6.94348 18.5701 1.99788 -11.362 -68.4532 11.3141
lowerback 4.72273 1.45297 -1.08397
upperback 0.202781 1.85444 -0.688677
thorax -2.44968 0.930351 -0.225246
lowerneck -12.3745 3.26662 -5.92245
upperneck 5.10241 5.35958 -0.964422
head 3.75087 2.4547 1.10513
rclavicle -2.83144e-014 -3.97569e-015
rhumerus 75.2508 -31.8518 -54.0404
rradius 23.6865
rwrist 0.852312
rhand -44.8467 -12.8441
rfingers 7.12502
rthumb -17.6361 -42.0643
lclavicle -2.83144e-014 -3.97569e-015
lhumerus 62.6906 25.8028 29.9278
lradius 34.105
lwrist 23.1638
lhand -11.9946 20.6713
lfingers 7.12502
lthumb 14.0622 50.1756
rfemur -6.06503 18.3025 13.2815
rtibia 30.9816
rfoot -23.443 -9.11142
rtoes -0.703751
lfemur -2.2448 -4.45835 -12.0185
ltibia 41.9085
lfoot -6.74422 10.6155
ltoes -9.88105
1838
root -6.88924 18.5732 2.04622 -11.3073 -68.489 11.194
lowerback 4.8181 1.44146 -1.15204
upperback 0.21708 1.83332 -0.696903
thorax -2.49019 0.920408 -0.196576
lowerneck -12.4737 3.22517 -5.75822
upperneck 4.99968 5.29023 -1.08198
head 3.74318 2.41995 1.03329
rclavicle -5.52249e-014 -6.75868e-015
rhumerus 75.5681 -32.1256 -54.5807
rradius 23.3551
rwrist 1.09865
rhand -44.8871 -13.173
rfingers 7.12502
rthumb -17.675 -42.3896
lclavicle -5.52249e-014 -6.75868e-015
lhumerus 63.3209 25.6839 30.3834
lradius 33.9916
lwrist 22.9151
lhand -11.957 20.5534
lfingers 7.12502
lthumb 14.0984 50.0551
rfemur -6.19334 18.3734 13.0463
rtibia 30.9993
rfoot -23.0593 -9.11445
rtoes -2.01142
lfemur -1.6684 -4.85849 -11.9093
ltibia 40.9854
lfoot -5.2628 10.1952
ltoes -10.938
